<svg width="333" height="358" viewBox="0 0 333 358" fill="none" xmlns="http://www.w3.org/2000/svg">
<rect x="2.5" y="27.5" width="328" height="328" stroke="black" stroke-width="5"/>
<path d="M10.72 7.04V9.18H15.04V7.04H10.72ZM13.64 2.28V15.78H16.3V2.28H13.64ZM4.08 18.34V20.46H16.72V18.34H4.08ZM4.08 14.64V19.6H6.74V14.64H4.08ZM5.08 4.7V5.86C5.08 8.2 3.76 10.62 0.7 11.62L2.04 13.74C5.6 12.56 7.24 9.34 7.24 5.86V4.7H5.08ZM5.64 4.7V5.86C5.64 9.16 7.22 12.24 10.66 13.38L11.96 11.3C9.04 10.32 7.78 8.02 7.78 5.86V4.7H5.64ZM1.42 3.52V5.62H11.38V3.52H1.42ZM27.3984 4.74V6.88H32.8784V4.74H27.3984ZM27.3984 8.76V10.9H32.8784V8.76H27.3984ZM22.0784 14.06V16.16H32.0384V20.78H34.6984V14.06H22.0784ZM32.0384 2.26V13.22H34.6984V2.26H32.0384ZM24.3184 3.22C21.5384 3.22 19.4184 5.14 19.4184 7.8C19.4184 10.48 21.5384 12.4 24.3184 12.4C27.0784 12.4 29.1984 10.48 29.1984 7.8C29.1984 5.14 27.0784 3.22 24.3184 3.22ZM24.3184 5.48C25.6584 5.48 26.6784 6.34 26.6784 7.8C26.6784 9.28 25.6584 10.14 24.3184 10.14C22.9584 10.14 21.9584 9.28 21.9584 7.8C21.9584 6.34 22.9584 5.48 24.3184 5.48Z" fill="black"/>
<path d="M75.1364 89.2131C74.0331 89.2131 73.0791 88.9787 72.2741 88.5099C71.474 88.0365 70.8561 87.3783 70.4205 86.5355C69.9848 85.688 69.767 84.7055 69.767 83.5881C69.767 82.4612 69.9848 81.4763 70.4205 80.6335C70.8561 79.786 71.474 79.1278 72.2741 78.6591C73.0791 78.1856 74.0331 77.9489 75.1364 77.9489C76.2396 77.9489 77.1913 78.1856 77.9915 78.6591C78.7964 79.1278 79.4167 79.786 79.8523 80.6335C80.2879 81.4763 80.5057 82.4612 80.5057 83.5881C80.5057 84.7055 80.2879 85.688 79.8523 86.5355C79.4167 87.3783 78.7964 88.0365 77.9915 88.5099C77.1913 88.9787 76.2396 89.2131 75.1364 89.2131ZM75.1506 86.8693C75.6525 86.8693 76.0715 86.7273 76.4077 86.4432C76.7438 86.1544 76.9972 85.7614 77.1676 85.2642C77.3428 84.767 77.4304 84.2012 77.4304 83.5668C77.4304 82.9323 77.3428 82.3665 77.1676 81.8693C76.9972 81.3722 76.7438 80.9792 76.4077 80.6903C76.0715 80.4015 75.6525 80.2571 75.1506 80.2571C74.6439 80.2571 74.2178 80.4015 73.8722 80.6903C73.5313 80.9792 73.2732 81.3722 73.098 81.8693C72.9276 82.3665 72.8423 82.9323 72.8423 83.5668C72.8423 84.2012 72.9276 84.767 73.098 85.2642C73.2732 85.7614 73.5313 86.1544 73.8722 86.4432C74.2178 86.7273 74.6439 86.8693 75.1506 86.8693ZM89.4688 84.3551V78.0909H92.4943V89H89.5895V87.0185H89.4759C89.2296 87.6577 88.8201 88.1714 88.2472 88.5597C87.679 88.9479 86.9853 89.142 86.1662 89.142C85.437 89.142 84.7955 88.9763 84.2415 88.6449C83.6875 88.3134 83.2543 87.8423 82.9418 87.2315C82.634 86.6207 82.4777 85.8892 82.473 85.0369V78.0909H85.4986V84.4972C85.5033 85.1411 85.6761 85.6501 86.017 86.0241C86.358 86.3982 86.8149 86.5852 87.3878 86.5852C87.7524 86.5852 88.0933 86.5024 88.4105 86.3366C88.7277 86.1662 88.9834 85.9152 89.1776 85.5838C89.3764 85.2524 89.4735 84.8428 89.4688 84.3551ZM100.717 78.0909V80.3636H94.1474V78.0909H100.717ZM95.6388 75.4773H98.6644V85.6477C98.6644 85.9271 98.707 86.1449 98.7923 86.3011C98.8775 86.4527 98.9959 86.5592 99.1474 86.6207C99.3036 86.6823 99.4835 86.7131 99.6871 86.7131C99.8292 86.7131 99.9712 86.7012 100.113 86.6776C100.255 86.6491 100.364 86.6278 100.44 86.6136L100.916 88.8651C100.764 88.9124 100.551 88.9669 100.277 89.0284C100.002 89.0947 99.6682 89.1349 99.2752 89.1491C98.546 89.1776 97.9068 89.0805 97.3576 88.858C96.8131 88.6354 96.3893 88.2898 96.0863 87.821C95.7833 87.3523 95.6341 86.7604 95.6388 86.0455V75.4773ZM107.542 89.2131C106.42 89.2131 105.454 88.9858 104.645 88.5312C103.84 88.072 103.219 87.4233 102.784 86.5852C102.348 85.7424 102.13 84.7457 102.13 83.5952C102.13 82.473 102.348 81.4882 102.784 80.6406C103.219 79.7931 103.833 79.1326 104.623 78.6591C105.419 78.1856 106.351 77.9489 107.422 77.9489C108.141 77.9489 108.811 78.0649 109.431 78.2969C110.056 78.5241 110.601 78.8674 111.065 79.3267C111.534 79.786 111.898 80.3636 112.159 81.0597C112.419 81.7509 112.549 82.5606 112.549 83.4886V84.3196H103.338V82.4446H109.701C109.701 82.009 109.607 81.6231 109.417 81.2869C109.228 80.9508 108.965 80.688 108.629 80.4986C108.297 80.3045 107.912 80.2074 107.471 80.2074C107.012 80.2074 106.605 80.3139 106.25 80.527C105.899 80.7353 105.625 81.017 105.426 81.3722C105.227 81.7225 105.125 82.1132 105.12 82.544V84.3267C105.12 84.8665 105.22 85.3329 105.419 85.7259C105.622 86.1188 105.909 86.4219 106.278 86.6349C106.647 86.848 107.085 86.9545 107.592 86.9545C107.928 86.9545 108.236 86.9072 108.515 86.8125C108.795 86.7178 109.034 86.5758 109.233 86.3864C109.431 86.197 109.583 85.965 109.687 85.6903L112.485 85.875C112.343 86.5473 112.052 87.1345 111.612 87.6364C111.176 88.1335 110.613 88.5218 109.922 88.8011C109.235 89.0758 108.442 89.2131 107.542 89.2131ZM114.524 89V78.0909H117.457V79.9943H117.571C117.77 79.3172 118.103 78.8059 118.572 78.4602C119.041 78.1098 119.581 77.9347 120.191 77.9347C120.343 77.9347 120.506 77.9441 120.681 77.9631C120.857 77.982 121.011 78.008 121.143 78.0412V80.7259C121.001 80.6832 120.805 80.6454 120.554 80.6122C120.303 80.5791 120.073 80.5625 119.865 80.5625C119.42 80.5625 119.022 80.6596 118.672 80.8537C118.326 81.0431 118.051 81.3082 117.848 81.6491C117.649 81.9901 117.549 82.383 117.549 82.8281V89H114.524ZM127.393 89V74.4545H137.024V76.9901H130.468V80.456H136.385V82.9915H130.468V89H127.393ZM145.348 84.3551V78.0909H148.373V89H145.468V87.0185H145.355C145.109 87.6577 144.699 88.1714 144.126 88.5597C143.558 88.9479 142.864 89.142 142.045 89.142C141.316 89.142 140.674 88.9763 140.12 88.6449C139.566 88.3134 139.133 87.8423 138.821 87.2315C138.513 86.6207 138.357 85.8892 138.352 85.0369V78.0909H141.377V84.4972C141.382 85.1411 141.555 85.6501 141.896 86.0241C142.237 86.3982 142.694 86.5852 143.267 86.5852C143.631 86.5852 143.972 86.5024 144.289 86.3366C144.607 86.1662 144.862 85.9152 145.056 85.5838C145.255 85.2524 145.352 84.8428 145.348 84.3551ZM153.819 82.6932V89H150.793V78.0909H153.677V80.0156H153.805C154.046 79.3812 154.451 78.8793 155.019 78.5099C155.587 78.1359 156.276 77.9489 157.086 77.9489C157.844 77.9489 158.504 78.1146 159.067 78.446C159.631 78.7775 160.069 79.2509 160.381 79.8665C160.694 80.4773 160.85 81.2064 160.85 82.054V89H157.825V82.5938C157.829 81.9261 157.659 81.4053 157.313 81.0312C156.968 80.6525 156.492 80.4631 155.886 80.4631C155.478 80.4631 155.119 80.5507 154.806 80.7259C154.498 80.901 154.257 81.1567 154.082 81.4929C153.911 81.8243 153.824 82.2244 153.819 82.6932ZM168.164 89.2131C167.046 89.2131 166.085 88.9763 165.28 88.5028C164.48 88.0246 163.864 87.3617 163.434 86.5142C163.007 85.6667 162.794 84.6913 162.794 83.5881C162.794 82.4706 163.01 81.4905 163.441 80.6477C163.876 79.8002 164.494 79.1397 165.294 78.6662C166.095 78.188 167.046 77.9489 168.15 77.9489C169.101 77.9489 169.935 78.1217 170.65 78.4673C171.364 78.813 171.93 79.2983 172.347 79.9233C172.764 80.5483 172.993 81.2822 173.036 82.125H170.181C170.1 81.5805 169.887 81.1425 169.542 80.8111C169.201 80.4749 168.753 80.3068 168.199 80.3068C167.73 80.3068 167.321 80.4347 166.971 80.6903C166.625 80.9413 166.355 81.3082 166.161 81.7912C165.967 82.2741 165.87 82.8589 165.87 83.5455C165.87 84.2415 165.964 84.8333 166.154 85.321C166.348 85.8087 166.62 86.1804 166.971 86.4361C167.321 86.6918 167.73 86.8196 168.199 86.8196C168.545 86.8196 168.855 86.7486 169.13 86.6065C169.409 86.4645 169.639 86.2585 169.819 85.9886C170.003 85.714 170.124 85.3849 170.181 85.0014H173.036C172.989 85.8348 172.761 86.5687 172.354 87.2031C171.952 87.8329 171.395 88.3253 170.685 88.6804C169.975 89.0355 169.134 89.2131 168.164 89.2131Z" fill="black"/>
<path d="M120.339 135.455V150H117.264V135.455H120.339ZM125.838 143.693V150H122.813V139.091H125.696V141.016H125.824C126.066 140.381 126.471 139.879 127.039 139.51C127.607 139.136 128.296 138.949 129.105 138.949C129.863 138.949 130.524 139.115 131.087 139.446C131.65 139.777 132.088 140.251 132.401 140.866C132.713 141.477 132.87 142.206 132.87 143.054V150H129.844V143.594C129.849 142.926 129.678 142.405 129.333 142.031C128.987 141.652 128.511 141.463 127.905 141.463C127.498 141.463 127.138 141.551 126.826 141.726C126.518 141.901 126.276 142.157 126.101 142.493C125.931 142.824 125.843 143.224 125.838 143.693ZM138.28 143.693V150H135.254V139.091H138.138V141.016H138.266C138.507 140.381 138.912 139.879 139.48 139.51C140.048 139.136 140.737 138.949 141.547 138.949C142.304 138.949 142.965 139.115 143.528 139.446C144.092 139.777 144.53 140.251 144.842 140.866C145.155 141.477 145.311 142.206 145.311 143.054V150H142.286V143.594C142.29 142.926 142.12 142.405 141.774 142.031C141.429 141.652 140.953 141.463 140.347 141.463C139.939 141.463 139.58 141.551 139.267 141.726C138.959 141.901 138.718 142.157 138.543 142.493C138.372 142.824 138.285 143.224 138.28 143.693ZM152.667 150.213C151.545 150.213 150.579 149.986 149.77 149.531C148.965 149.072 148.344 148.423 147.909 147.585C147.473 146.742 147.255 145.746 147.255 144.595C147.255 143.473 147.473 142.488 147.909 141.641C148.344 140.793 148.958 140.133 149.748 139.659C150.544 139.186 151.476 138.949 152.547 138.949C153.266 138.949 153.936 139.065 154.556 139.297C155.181 139.524 155.726 139.867 156.19 140.327C156.659 140.786 157.023 141.364 157.284 142.06C157.544 142.751 157.674 143.561 157.674 144.489V145.32H148.463V143.445H154.826C154.826 143.009 154.732 142.623 154.542 142.287C154.353 141.951 154.09 141.688 153.754 141.499C153.422 141.304 153.037 141.207 152.596 141.207C152.137 141.207 151.73 141.314 151.375 141.527C151.024 141.735 150.75 142.017 150.551 142.372C150.352 142.723 150.25 143.113 150.245 143.544V145.327C150.245 145.866 150.345 146.333 150.544 146.726C150.747 147.119 151.034 147.422 151.403 147.635C151.772 147.848 152.21 147.955 152.717 147.955C153.053 147.955 153.361 147.907 153.64 147.812C153.92 147.718 154.159 147.576 154.358 147.386C154.556 147.197 154.708 146.965 154.812 146.69L157.61 146.875C157.468 147.547 157.177 148.134 156.737 148.636C156.301 149.134 155.738 149.522 155.047 149.801C154.36 150.076 153.567 150.213 152.667 150.213ZM159.649 150V139.091H162.582V140.994H162.696C162.895 140.317 163.228 139.806 163.697 139.46C164.166 139.11 164.706 138.935 165.316 138.935C165.468 138.935 165.631 138.944 165.806 138.963C165.982 138.982 166.136 139.008 166.268 139.041V141.726C166.126 141.683 165.93 141.645 165.679 141.612C165.428 141.579 165.198 141.562 164.99 141.562C164.545 141.562 164.147 141.66 163.797 141.854C163.451 142.043 163.176 142.308 162.973 142.649C162.774 142.99 162.674 143.383 162.674 143.828V150H159.649ZM172.518 150V135.455H182.149V137.99H175.593V141.456H181.51V143.991H175.593V150H172.518ZM190.473 145.355V139.091H193.498V150H190.593V148.018H190.48C190.234 148.658 189.824 149.171 189.251 149.56C188.683 149.948 187.989 150.142 187.17 150.142C186.441 150.142 185.799 149.976 185.245 149.645C184.691 149.313 184.258 148.842 183.946 148.232C183.638 147.621 183.482 146.889 183.477 146.037V139.091H186.502V145.497C186.507 146.141 186.68 146.65 187.021 147.024C187.362 147.398 187.819 147.585 188.392 147.585C188.756 147.585 189.097 147.502 189.414 147.337C189.732 147.166 189.987 146.915 190.181 146.584C190.38 146.252 190.477 145.843 190.473 145.355ZM198.944 143.693V150H195.918V139.091H198.802V141.016H198.93C199.171 140.381 199.576 139.879 200.144 139.51C200.712 139.136 201.401 138.949 202.211 138.949C202.969 138.949 203.629 139.115 204.192 139.446C204.756 139.777 205.194 140.251 205.506 140.866C205.819 141.477 205.975 142.206 205.975 143.054V150H202.95V143.594C202.954 142.926 202.784 142.405 202.438 142.031C202.093 141.652 201.617 141.463 201.011 141.463C200.603 141.463 200.244 141.551 199.931 141.726C199.623 141.901 199.382 142.157 199.207 142.493C199.036 142.824 198.949 143.224 198.944 143.693ZM213.289 150.213C212.171 150.213 211.21 149.976 210.405 149.503C209.605 149.025 208.989 148.362 208.559 147.514C208.132 146.667 207.919 145.691 207.919 144.588C207.919 143.471 208.135 142.491 208.566 141.648C209.001 140.8 209.619 140.14 210.419 139.666C211.22 139.188 212.171 138.949 213.275 138.949C214.226 138.949 215.06 139.122 215.775 139.467C216.489 139.813 217.055 140.298 217.472 140.923C217.889 141.548 218.118 142.282 218.161 143.125H215.306C215.225 142.58 215.012 142.143 214.667 141.811C214.326 141.475 213.878 141.307 213.324 141.307C212.855 141.307 212.446 141.435 212.096 141.69C211.75 141.941 211.48 142.308 211.286 142.791C211.092 143.274 210.995 143.859 210.995 144.545C210.995 145.241 211.089 145.833 211.279 146.321C211.473 146.809 211.745 147.18 212.096 147.436C212.446 147.692 212.855 147.82 213.324 147.82C213.67 147.82 213.98 147.749 214.255 147.607C214.534 147.464 214.764 147.259 214.944 146.989C215.128 146.714 215.249 146.385 215.306 146.001H218.161C218.114 146.835 217.886 147.569 217.479 148.203C217.077 148.833 216.52 149.325 215.81 149.68C215.1 150.036 214.259 150.213 213.289 150.213Z" fill="black"/>
<rect x="71.5" y="97.5" width="199" height="204" stroke="#83C144" stroke-width="5"/>
<path d="M39.7358 48.0909L41.7386 51.9048L43.7912 48.0909H46.8949L43.7344 53.5455L46.9801 59H43.8906L41.7386 55.2287L39.6222 59H36.4972L39.7358 53.5455L36.6108 48.0909H39.7358ZM54.0025 50.6335V48.1051H63.8107V50.6335H54.0025ZM54.0025 55.3494V52.821H63.8107V55.3494H54.0025ZM77.843 44.4545V59H74.7678V47.3736H74.6825L71.3516 49.4616V46.7344L74.9524 44.4545H77.843Z" fill="black"/>
<path d="M94.7358 117.091L96.7386 120.905L98.7912 117.091H101.895L98.7344 122.545L101.98 128H98.8906L96.7386 124.229L94.6222 128H91.4972L94.7358 122.545L91.6108 117.091H94.7358ZM109.002 119.634V117.105H118.811V119.634H109.002ZM109.002 124.349V121.821H118.811V124.349H109.002ZM132.843 113.455V128H129.768V116.374H129.683L126.352 118.462V115.734L129.952 113.455H132.843ZM142.003 128.32C140.782 128.315 139.73 128.014 138.85 127.418C137.974 126.821 137.299 125.957 136.826 124.825C136.357 123.694 136.125 122.332 136.13 120.741C136.13 119.155 136.364 117.804 136.833 116.686C137.306 115.569 137.981 114.719 138.857 114.136C139.738 113.549 140.786 113.256 142.003 113.256C143.22 113.256 144.266 113.549 145.142 114.136C146.023 114.723 146.7 115.576 147.174 116.693C147.647 117.806 147.882 119.155 147.877 120.741C147.877 122.337 147.64 123.701 147.167 124.832C146.698 125.964 146.025 126.828 145.15 127.425C144.274 128.021 143.225 128.32 142.003 128.32ZM142.003 125.77C142.837 125.77 143.502 125.351 143.999 124.513C144.496 123.675 144.742 122.418 144.738 120.741C144.738 119.638 144.624 118.72 144.397 117.986C144.174 117.252 143.857 116.7 143.445 116.331C143.038 115.962 142.557 115.777 142.003 115.777C141.175 115.777 140.512 116.191 140.015 117.02C139.517 117.848 139.266 119.089 139.262 120.741C139.262 121.859 139.373 122.792 139.596 123.54C139.823 124.283 140.142 124.842 140.554 125.216C140.966 125.585 141.449 125.77 142.003 125.77Z" fill="black"/>
<mask id="path-8-inside-1_8_2" fill="white">
<path d="M121 159H221V258H121V159Z"/>
</mask>
<path d="M121 159V154H116V159H121ZM221 159H226V154H221V159ZM221 258V263H226V258H221ZM121 258H116V263H121V258ZM121 164H221V154H121V164ZM216 159V258H226V159H216ZM221 253H121V263H221V253ZM126 258V159H116V258H126Z" fill="#1628CB" mask="url(#path-8-inside-1_8_2)"/>
<path d="M147.233 195.455V210H144.207V195.455H147.233ZM154.586 210.213C153.482 210.213 152.528 209.979 151.723 209.51C150.923 209.036 150.305 208.378 149.87 207.536C149.434 206.688 149.216 205.705 149.216 204.588C149.216 203.461 149.434 202.476 149.87 201.634C150.305 200.786 150.923 200.128 151.723 199.659C152.528 199.186 153.482 198.949 154.586 198.949C155.689 198.949 156.641 199.186 157.441 199.659C158.246 200.128 158.866 200.786 159.301 201.634C159.737 202.476 159.955 203.461 159.955 204.588C159.955 205.705 159.737 206.688 159.301 207.536C158.866 208.378 158.246 209.036 157.441 209.51C156.641 209.979 155.689 210.213 154.586 210.213ZM154.6 207.869C155.102 207.869 155.521 207.727 155.857 207.443C156.193 207.154 156.446 206.761 156.617 206.264C156.792 205.767 156.88 205.201 156.88 204.567C156.88 203.932 156.792 203.366 156.617 202.869C156.446 202.372 156.193 201.979 155.857 201.69C155.521 201.402 155.102 201.257 154.6 201.257C154.093 201.257 153.667 201.402 153.321 201.69C152.98 201.979 152.722 202.372 152.547 202.869C152.377 203.366 152.292 203.932 152.292 204.567C152.292 205.201 152.377 205.767 152.547 206.264C152.722 206.761 152.98 207.154 153.321 207.443C153.667 207.727 154.093 207.869 154.6 207.869ZM166.837 214.318C165.857 214.318 165.016 214.183 164.316 213.913C163.62 213.648 163.066 213.286 162.654 212.827C162.242 212.367 161.974 211.851 161.851 211.278L164.65 210.902C164.735 211.12 164.87 211.323 165.054 211.513C165.239 211.702 165.483 211.854 165.786 211.967C166.094 212.086 166.468 212.145 166.908 212.145C167.566 212.145 168.108 211.984 168.534 211.662C168.965 211.345 169.181 210.812 169.181 210.064V208.068H169.053C168.92 208.371 168.721 208.658 168.456 208.928C168.191 209.197 167.85 209.418 167.434 209.588C167.017 209.759 166.52 209.844 165.942 209.844C165.123 209.844 164.377 209.654 163.705 209.276C163.037 208.892 162.505 208.307 162.107 207.521C161.714 206.731 161.517 205.732 161.517 204.524C161.517 203.288 161.719 202.256 162.121 201.428C162.524 200.599 163.059 199.979 163.726 199.567C164.399 199.155 165.135 198.949 165.935 198.949C166.546 198.949 167.057 199.053 167.469 199.261C167.881 199.465 168.212 199.721 168.463 200.028C168.719 200.331 168.916 200.63 169.053 200.923H169.167V199.091H172.171V210.107C172.171 211.035 171.944 211.811 171.489 212.436C171.034 213.061 170.405 213.53 169.6 213.842C168.8 214.16 167.879 214.318 166.837 214.318ZM166.901 207.571C167.389 207.571 167.801 207.45 168.137 207.209C168.478 206.963 168.738 206.612 168.918 206.158C169.103 205.698 169.195 205.149 169.195 204.51C169.195 203.871 169.105 203.317 168.925 202.848C168.745 202.375 168.485 202.008 168.144 201.747C167.803 201.487 167.389 201.357 166.901 201.357C166.404 201.357 165.985 201.491 165.644 201.761C165.303 202.027 165.045 202.396 164.87 202.869C164.694 203.343 164.607 203.89 164.607 204.51C164.607 205.14 164.694 205.684 164.87 206.143C165.05 206.598 165.308 206.951 165.644 207.202C165.985 207.448 166.404 207.571 166.901 207.571ZM175.246 204.169C175.246 202.408 175.48 200.786 175.949 199.304C176.423 197.822 177.145 196.449 178.115 195.185H181.006C180.637 195.653 180.293 196.226 179.976 196.903C179.659 197.576 179.382 198.314 179.145 199.119C178.908 199.924 178.724 200.758 178.591 201.619C178.459 202.476 178.392 203.326 178.392 204.169C178.392 205.291 178.506 206.425 178.733 207.571C178.965 208.712 179.278 209.773 179.671 210.753C180.069 211.733 180.514 212.536 181.006 213.161H178.115C177.145 211.896 176.423 210.523 175.949 209.041C175.48 207.559 175.246 205.935 175.246 204.169ZM185.29 199.091L187.293 202.905L189.346 199.091H192.45L189.289 204.545L192.535 210H189.445L187.293 206.229L185.177 210H182.052L185.29 204.545L182.165 199.091H185.29ZM199.346 204.169C199.346 205.935 199.109 207.559 198.636 209.041C198.167 210.523 197.447 211.896 196.477 213.161H193.586C193.955 212.692 194.299 212.119 194.616 211.442C194.933 210.765 195.21 210.026 195.447 209.226C195.683 208.421 195.868 207.588 196.001 206.726C196.133 205.864 196.2 205.012 196.2 204.169C196.2 203.047 196.084 201.915 195.852 200.774C195.624 199.628 195.312 198.568 194.914 197.592C194.521 196.612 194.078 195.81 193.586 195.185H196.477C197.447 196.449 198.167 197.822 198.636 199.304C199.109 200.786 199.346 202.408 199.346 204.169Z" fill="black"/>
<path d="M94.3104 141.532C93.4999 141.361 92.7039 141.879 92.5325 142.69L89.7385 155.897C89.5671 156.708 90.0851 157.504 90.8956 157.675C91.7061 157.847 92.5021 157.329 92.6736 156.518L95.1571 144.778L106.897 147.261C107.708 147.433 108.504 146.915 108.675 146.104C108.847 145.294 108.329 144.498 107.518 144.326L94.3104 141.532ZM136.257 205.182L95.2572 142.182L92.7428 143.818L133.743 206.818L136.257 205.182Z" fill="#BC59EB"/>
</svg>
