<svg width="341" height="549" viewBox="0 0 341 549" fill="none" xmlns="http://www.w3.org/2000/svg">
<g filter="url(#filter0_d_8_3)">
<rect x="6.5" y="2.5" width="328" height="161" stroke="black" stroke-width="5"/>
<path d="M80.7358 91.0909L82.7386 94.9048L84.7912 91.0909H87.8949L84.7344 96.5455L87.9801 102H84.8906L82.7386 98.2287L80.6222 102H77.4972L80.7358 96.5455L77.6108 91.0909H80.7358ZM95.0025 93.6335V91.1051H104.811V93.6335H95.0025ZM95.0025 98.3494V95.821H104.811V98.3494H95.0025ZM118.843 87.4545V102H115.768V90.3736H115.683L112.352 92.4616V89.7344L115.952 87.4545H118.843Z" fill="black"/>
<path d="M83.1364 134.213C82.0331 134.213 81.0791 133.979 80.2741 133.51C79.474 133.036 78.8561 132.378 78.4205 131.536C77.9848 130.688 77.767 129.705 77.767 128.588C77.767 127.461 77.9848 126.476 78.4205 125.634C78.8561 124.786 79.474 124.128 80.2741 123.659C81.0791 123.186 82.0331 122.949 83.1364 122.949C84.2396 122.949 85.1913 123.186 85.9915 123.659C86.7964 124.128 87.4167 124.786 87.8523 125.634C88.2879 126.476 88.5057 127.461 88.5057 128.588C88.5057 129.705 88.2879 130.688 87.8523 131.536C87.4167 132.378 86.7964 133.036 85.9915 133.51C85.1913 133.979 84.2396 134.213 83.1364 134.213ZM83.1506 131.869C83.6525 131.869 84.0715 131.727 84.4077 131.443C84.7438 131.154 84.9972 130.761 85.1676 130.264C85.3428 129.767 85.4304 129.201 85.4304 128.567C85.4304 127.932 85.3428 127.366 85.1676 126.869C84.9972 126.372 84.7438 125.979 84.4077 125.69C84.0715 125.402 83.6525 125.257 83.1506 125.257C82.6439 125.257 82.2178 125.402 81.8722 125.69C81.5313 125.979 81.2732 126.372 81.098 126.869C80.9276 127.366 80.8423 127.932 80.8423 128.567C80.8423 129.201 80.9276 129.767 81.098 130.264C81.2732 130.761 81.5313 131.154 81.8722 131.443C82.2178 131.727 82.6439 131.869 83.1506 131.869ZM97.4688 129.355V123.091H100.494V134H97.5895V132.018H97.4759C97.2296 132.658 96.8201 133.171 96.2472 133.56C95.679 133.948 94.9853 134.142 94.1662 134.142C93.437 134.142 92.7955 133.976 92.2415 133.645C91.6875 133.313 91.2543 132.842 90.9418 132.232C90.634 131.621 90.4777 130.889 90.473 130.037V123.091H93.4986V129.497C93.5033 130.141 93.6761 130.65 94.017 131.024C94.358 131.398 94.8149 131.585 95.3878 131.585C95.7524 131.585 96.0933 131.502 96.4105 131.337C96.7277 131.166 96.9834 130.915 97.1776 130.584C97.3764 130.252 97.4735 129.843 97.4688 129.355ZM108.717 123.091V125.364H102.147V123.091H108.717ZM103.639 120.477H106.664V130.648C106.664 130.927 106.707 131.145 106.792 131.301C106.877 131.453 106.996 131.559 107.147 131.621C107.304 131.682 107.484 131.713 107.687 131.713C107.829 131.713 107.971 131.701 108.113 131.678C108.255 131.649 108.364 131.628 108.44 131.614L108.916 133.865C108.764 133.912 108.551 133.967 108.277 134.028C108.002 134.095 107.668 134.135 107.275 134.149C106.546 134.178 105.907 134.08 105.358 133.858C104.813 133.635 104.389 133.29 104.086 132.821C103.783 132.352 103.634 131.76 103.639 131.045V120.477ZM115.542 134.213C114.42 134.213 113.454 133.986 112.645 133.531C111.84 133.072 111.219 132.423 110.784 131.585C110.348 130.742 110.13 129.746 110.13 128.595C110.13 127.473 110.348 126.488 110.784 125.641C111.219 124.793 111.833 124.133 112.623 123.659C113.419 123.186 114.351 122.949 115.422 122.949C116.141 122.949 116.811 123.065 117.431 123.297C118.056 123.524 118.601 123.867 119.065 124.327C119.534 124.786 119.898 125.364 120.159 126.06C120.419 126.751 120.549 127.561 120.549 128.489V129.32H111.338V127.445H117.701C117.701 127.009 117.607 126.623 117.417 126.287C117.228 125.951 116.965 125.688 116.629 125.499C116.297 125.304 115.912 125.207 115.471 125.207C115.012 125.207 114.605 125.314 114.25 125.527C113.899 125.735 113.625 126.017 113.426 126.372C113.227 126.723 113.125 127.113 113.12 127.544V129.327C113.12 129.866 113.22 130.333 113.419 130.726C113.622 131.119 113.909 131.422 114.278 131.635C114.647 131.848 115.085 131.955 115.592 131.955C115.928 131.955 116.236 131.907 116.515 131.812C116.795 131.718 117.034 131.576 117.233 131.386C117.431 131.197 117.583 130.965 117.687 130.69L120.485 130.875C120.343 131.547 120.052 132.134 119.612 132.636C119.176 133.134 118.613 133.522 117.922 133.801C117.235 134.076 116.442 134.213 115.542 134.213ZM122.524 134V123.091H125.457V124.994H125.571C125.77 124.317 126.103 123.806 126.572 123.46C127.041 123.11 127.581 122.935 128.191 122.935C128.343 122.935 128.506 122.944 128.681 122.963C128.857 122.982 129.011 123.008 129.143 123.041V125.726C129.001 125.683 128.805 125.645 128.554 125.612C128.303 125.579 128.073 125.562 127.865 125.562C127.42 125.562 127.022 125.66 126.672 125.854C126.326 126.043 126.051 126.308 125.848 126.649C125.649 126.99 125.549 127.383 125.549 127.828V134H122.524ZM136.018 127.082V124.561H145.826V127.082H136.018ZM136.018 131.798V129.277H145.826V131.798H136.018ZM154.148 129.433V126.933L164.148 122.53V125.406L157.302 128.155L157.394 128.006V128.361L157.302 128.212L164.148 130.96V133.837L154.148 129.433ZM173.019 123.091V125.364H166.286V123.091H173.019ZM167.827 134V122.303C167.827 121.512 167.981 120.856 168.289 120.335C168.602 119.814 169.028 119.424 169.567 119.163C170.107 118.903 170.72 118.773 171.407 118.773C171.871 118.773 172.295 118.808 172.678 118.879C173.067 118.95 173.355 119.014 173.545 119.071L173.005 121.344C172.887 121.306 172.74 121.27 172.565 121.237C172.394 121.204 172.219 121.188 172.039 121.188C171.594 121.188 171.284 121.292 171.109 121.5C170.933 121.704 170.846 121.99 170.846 122.359V134H167.827ZM181.863 129.355V123.091H184.889V134H181.984V132.018H181.87C181.624 132.658 181.215 133.171 180.642 133.56C180.074 133.948 179.38 134.142 178.561 134.142C177.832 134.142 177.19 133.976 176.636 133.645C176.082 133.313 175.649 132.842 175.336 132.232C175.029 131.621 174.872 130.889 174.868 130.037V123.091H177.893V129.497C177.898 130.141 178.071 130.65 178.412 131.024C178.752 131.398 179.209 131.585 179.782 131.585C180.147 131.585 180.488 131.502 180.805 131.337C181.122 131.166 181.378 130.915 181.572 130.584C181.771 130.252 181.868 129.843 181.863 129.355ZM190.335 127.693V134H187.309V123.091H190.192V125.016H190.32C190.562 124.381 190.967 123.879 191.535 123.51C192.103 123.136 192.792 122.949 193.602 122.949C194.359 122.949 195.02 123.115 195.583 123.446C196.147 123.777 196.585 124.251 196.897 124.866C197.21 125.477 197.366 126.206 197.366 127.054V134H194.34V127.594C194.345 126.926 194.174 126.405 193.829 126.031C193.483 125.652 193.007 125.463 192.401 125.463C191.994 125.463 191.634 125.551 191.322 125.726C191.014 125.901 190.772 126.157 190.597 126.493C190.427 126.824 190.339 127.224 190.335 127.693ZM204.679 134.213C203.562 134.213 202.601 133.976 201.796 133.503C200.996 133.025 200.38 132.362 199.949 131.514C199.523 130.667 199.31 129.691 199.31 128.588C199.31 127.471 199.525 126.491 199.956 125.648C200.392 124.8 201.01 124.14 201.81 123.666C202.61 123.188 203.562 122.949 204.665 122.949C205.617 122.949 206.45 123.122 207.165 123.467C207.88 123.813 208.446 124.298 208.863 124.923C209.279 125.548 209.509 126.282 209.551 127.125H206.696C206.616 126.58 206.403 126.143 206.057 125.811C205.716 125.475 205.269 125.307 204.715 125.307C204.246 125.307 203.837 125.435 203.486 125.69C203.141 125.941 202.871 126.308 202.676 126.791C202.482 127.274 202.385 127.859 202.385 128.545C202.385 129.241 202.48 129.833 202.669 130.321C202.864 130.809 203.136 131.18 203.486 131.436C203.837 131.692 204.246 131.82 204.715 131.82C205.06 131.82 205.371 131.749 205.645 131.607C205.925 131.464 206.154 131.259 206.334 130.989C206.519 130.714 206.64 130.385 206.696 130.001H209.551C209.504 130.835 209.277 131.569 208.87 132.203C208.467 132.833 207.911 133.325 207.201 133.68C206.49 134.036 205.65 134.213 204.679 134.213ZM217.291 123.091V125.364H210.722V123.091H217.291ZM212.213 120.477H215.239V130.648C215.239 130.927 215.281 131.145 215.366 131.301C215.452 131.453 215.57 131.559 215.722 131.621C215.878 131.682 216.058 131.713 216.261 131.713C216.403 131.713 216.545 131.701 216.688 131.678C216.83 131.649 216.938 131.628 217.014 131.614L217.49 133.865C217.339 133.912 217.125 133.967 216.851 134.028C216.576 134.095 216.242 134.135 215.849 134.149C215.12 134.178 214.481 134.08 213.932 133.858C213.387 133.635 212.964 133.29 212.661 132.821C212.357 132.352 212.208 131.76 212.213 131.045V120.477ZM219.262 134V123.091H222.288V134H219.262ZM220.782 121.685C220.332 121.685 219.946 121.536 219.624 121.237C219.307 120.934 219.148 120.572 219.148 120.151C219.148 119.734 219.307 119.376 219.624 119.078C219.946 118.775 220.332 118.624 220.782 118.624C221.232 118.624 221.615 118.775 221.933 119.078C222.254 119.376 222.415 119.734 222.415 120.151C222.415 120.572 222.254 120.934 221.933 121.237C221.615 121.536 221.232 121.685 220.782 121.685ZM229.64 134.213C228.537 134.213 227.583 133.979 226.778 133.51C225.978 133.036 225.36 132.378 224.924 131.536C224.489 130.688 224.271 129.705 224.271 128.588C224.271 127.461 224.489 126.476 224.924 125.634C225.36 124.786 225.978 124.128 226.778 123.659C227.583 123.186 228.537 122.949 229.64 122.949C230.743 122.949 231.695 123.186 232.495 123.659C233.3 124.128 233.921 124.786 234.356 125.634C234.792 126.476 235.01 127.461 235.01 128.588C235.01 129.705 234.792 130.688 234.356 131.536C233.921 132.378 233.3 133.036 232.495 133.51C231.695 133.979 230.743 134.213 229.64 134.213ZM229.654 131.869C230.156 131.869 230.575 131.727 230.912 131.443C231.248 131.154 231.501 130.761 231.672 130.264C231.847 129.767 231.934 129.201 231.934 128.567C231.934 127.932 231.847 127.366 231.672 126.869C231.501 126.372 231.248 125.979 230.912 125.69C230.575 125.402 230.156 125.257 229.654 125.257C229.148 125.257 228.722 125.402 228.376 125.69C228.035 125.979 227.777 126.372 227.602 126.869C227.431 127.366 227.346 127.932 227.346 128.567C227.346 129.201 227.431 129.767 227.602 130.264C227.777 130.761 228.035 131.154 228.376 131.443C228.722 131.727 229.148 131.869 229.654 131.869ZM240.002 127.693V134H236.977V123.091H239.86V125.016H239.988C240.23 124.381 240.635 123.879 241.203 123.51C241.771 123.136 242.46 122.949 243.27 122.949C244.027 122.949 244.688 123.115 245.251 123.446C245.815 123.777 246.252 124.251 246.565 124.866C246.877 125.477 247.034 126.206 247.034 127.054V134H244.008V127.594C244.013 126.926 243.842 126.405 243.497 126.031C243.151 125.652 242.675 125.463 242.069 125.463C241.662 125.463 241.302 125.551 240.99 125.726C240.682 125.901 240.44 126.157 240.265 126.493C240.095 126.824 240.007 127.224 240.002 127.693ZM258.976 134.213C257.873 134.213 256.919 133.979 256.114 133.51C255.314 133.036 254.696 132.378 254.26 131.536C253.825 130.688 253.607 129.705 253.607 128.588C253.607 127.461 253.825 126.476 254.26 125.634C254.696 124.786 255.314 124.128 256.114 123.659C256.919 123.186 257.873 122.949 258.976 122.949C260.079 122.949 261.031 123.186 261.831 123.659C262.636 124.128 263.257 124.786 263.692 125.634C264.128 126.476 264.346 127.461 264.346 128.588C264.346 129.705 264.128 130.688 263.692 131.536C263.257 132.378 262.636 133.036 261.831 133.51C261.031 133.979 260.079 134.213 258.976 134.213ZM258.99 131.869C259.492 131.869 259.911 131.727 260.248 131.443C260.584 131.154 260.837 130.761 261.007 130.264C261.183 129.767 261.27 129.201 261.27 128.567C261.27 127.932 261.183 127.366 261.007 126.869C260.837 126.372 260.584 125.979 260.248 125.69C259.911 125.402 259.492 125.257 258.99 125.257C258.484 125.257 258.058 125.402 257.712 125.69C257.371 125.979 257.113 126.372 256.938 126.869C256.767 127.366 256.682 127.932 256.682 128.567C256.682 129.201 256.767 129.767 256.938 130.264C257.113 130.761 257.371 131.154 257.712 131.443C258.058 131.727 258.484 131.869 258.99 131.869ZM266.37 134V119.455H269.395V124.923H269.488C269.62 124.63 269.812 124.331 270.063 124.028C270.319 123.721 270.65 123.465 271.057 123.261C271.469 123.053 271.98 122.949 272.591 122.949C273.387 122.949 274.121 123.157 274.793 123.574C275.465 123.986 276.003 124.608 276.405 125.442C276.808 126.27 277.009 127.31 277.009 128.56C277.009 129.777 276.812 130.804 276.419 131.642C276.031 132.475 275.501 133.107 274.828 133.538C274.161 133.964 273.413 134.178 272.584 134.178C271.997 134.178 271.498 134.08 271.086 133.886C270.678 133.692 270.345 133.448 270.084 133.155C269.824 132.857 269.625 132.556 269.488 132.253H269.353V134H266.37ZM269.331 128.545C269.331 129.194 269.421 129.76 269.601 130.243C269.781 130.726 270.042 131.102 270.382 131.372C270.723 131.637 271.138 131.77 271.625 131.77C272.118 131.77 272.534 131.635 272.875 131.365C273.216 131.09 273.474 130.712 273.65 130.229C273.829 129.741 273.919 129.18 273.919 128.545C273.919 127.916 273.832 127.362 273.657 126.884C273.481 126.405 273.223 126.031 272.882 125.761C272.542 125.491 272.123 125.357 271.625 125.357C271.133 125.357 270.716 125.487 270.375 125.747C270.039 126.008 269.781 126.377 269.601 126.855C269.421 127.333 269.331 127.897 269.331 128.545ZM279.028 123.091H282.053V134.54C282.053 135.383 281.888 136.064 281.556 136.585C281.225 137.106 280.749 137.487 280.129 137.729C279.513 137.97 278.777 138.091 277.92 138.091C277.816 138.091 277.716 138.089 277.621 138.084C277.522 138.084 277.418 138.081 277.309 138.077V135.712C277.389 135.716 277.46 135.719 277.522 135.719C277.579 135.723 277.64 135.726 277.707 135.726C278.194 135.726 278.535 135.622 278.729 135.413C278.928 135.21 279.028 134.902 279.028 134.49V123.091ZM280.533 121.685C280.088 121.685 279.705 121.536 279.383 121.237C279.061 120.934 278.9 120.572 278.9 120.151C278.9 119.734 279.061 119.376 279.383 119.078C279.705 118.775 280.088 118.624 280.533 118.624C280.988 118.624 281.374 118.775 281.691 119.078C282.013 119.376 282.174 119.734 282.174 120.151C282.174 120.572 282.013 120.934 281.691 121.237C281.374 121.536 280.988 121.685 280.533 121.685ZM295.066 129.433L285.066 133.837V130.96L291.913 128.212L291.821 128.361V128.006L291.913 128.155L285.066 125.406V122.53L295.066 126.933V129.433Z" fill="black"/>
<rect x="9" y="4.85715" width="323" height="55.3714" fill="#7BCA83"/>
<rect x="9" y="4.85715" width="323" height="55.3714" stroke="black"/>
<path d="M132.72 27.44V29.58H137.04V27.44H132.72ZM135.64 22.68V36.18H138.3V22.68H135.64ZM126.08 38.74V40.86H138.72V38.74H126.08ZM126.08 35.04V40H128.74V35.04H126.08ZM127.08 25.1V26.26C127.08 28.6 125.76 31.02 122.7 32.02L124.04 34.14C127.6 32.96 129.24 29.74 129.24 26.26V25.1H127.08ZM127.64 25.1V26.26C127.64 29.56 129.22 32.64 132.66 33.78L133.96 31.7C131.04 30.72 129.78 28.42 129.78 26.26V25.1H127.64ZM123.42 23.92V26.02H133.38V23.92H123.42ZM149.398 25.14V27.28H154.878V25.14H149.398ZM149.398 29.16V31.3H154.878V29.16H149.398ZM144.078 34.46V36.56H154.038V41.18H156.698V34.46H144.078ZM154.038 22.66V33.62H156.698V22.66H154.038ZM146.318 23.62C143.538 23.62 141.418 25.54 141.418 28.2C141.418 30.88 143.538 32.8 146.318 32.8C149.078 32.8 151.198 30.88 151.198 28.2C151.198 25.54 149.078 23.62 146.318 23.62ZM146.318 25.88C147.658 25.88 148.678 26.74 148.678 28.2C148.678 29.68 147.658 30.54 146.318 30.54C144.958 30.54 143.958 29.68 143.958 28.2C143.958 26.74 144.958 25.88 146.318 25.88ZM171.106 23.72V25.06C171.106 27.72 168.806 30.66 164.626 31.38L165.766 33.58C170.566 32.64 173.426 29.08 173.426 25.06V23.72H171.106ZM171.646 23.72V25.06C171.646 29.14 174.486 32.64 179.286 33.58L180.426 31.38C176.226 30.66 173.946 27.78 173.946 25.06V23.72H171.646ZM164.246 36.76V38.92H181.006V36.76H164.246ZM184.524 24.2V26.32H196.184V24.2H184.524ZM182.624 36.92V39.06H199.364V36.92H182.624ZM195.124 24.2V25.82C195.124 27.96 195.124 30.66 194.284 34.42L196.904 34.7C197.764 30.68 197.744 28.06 197.744 25.82V24.2H195.124ZM195.604 28.66L183.944 29.02L184.304 31.28L195.604 30.66V28.66ZM188.564 32.48V37.7H191.224V32.48H188.564ZM201.043 36.86V39.04H217.803V36.86H201.043ZM202.323 24.26V26.38H216.423V24.26H202.323ZM202.403 31.92V34.06H216.363V31.92H202.403ZM204.843 26.22V32.12H207.503V26.22H204.843ZM211.263 26.22V32.12H213.903V26.22H211.263Z" fill="black"/>
<rect x="6.5" y="204.5" width="328" height="161" stroke="black" stroke-width="5"/>
<path d="M80.7358 293.091L82.7386 296.905L84.7912 293.091H87.8949L84.7344 298.545L87.9801 304H84.8906L82.7386 300.229L80.6222 304H77.4972L80.7358 298.545L77.6108 293.091H80.7358ZM95.0025 295.634V293.105H104.811V295.634H95.0025ZM95.0025 300.349V297.821H104.811V300.349H95.0025ZM118.843 289.455V304H115.768V292.374H115.683L112.352 294.462V291.734L115.952 289.455H118.843ZM128.003 304.32C126.782 304.315 125.73 304.014 124.85 303.418C123.974 302.821 123.299 301.957 122.826 300.825C122.357 299.694 122.125 298.332 122.13 296.741C122.13 295.155 122.364 293.804 122.833 292.686C123.306 291.569 123.981 290.719 124.857 290.136C125.738 289.549 126.786 289.256 128.003 289.256C129.22 289.256 130.266 289.549 131.142 290.136C132.023 290.723 132.7 291.576 133.174 292.693C133.647 293.806 133.882 295.155 133.877 296.741C133.877 298.337 133.64 299.701 133.167 300.832C132.698 301.964 132.025 302.828 131.15 303.425C130.274 304.021 129.225 304.32 128.003 304.32ZM128.003 301.77C128.837 301.77 129.502 301.351 129.999 300.513C130.496 299.675 130.742 298.418 130.738 296.741C130.738 295.638 130.624 294.72 130.397 293.986C130.174 293.252 129.857 292.7 129.445 292.331C129.038 291.962 128.557 291.777 128.003 291.777C127.175 291.777 126.512 292.191 126.015 293.02C125.517 293.848 125.266 295.089 125.262 296.741C125.262 297.859 125.373 298.792 125.596 299.54C125.823 300.283 126.142 300.842 126.554 301.216C126.966 301.585 127.449 301.77 128.003 301.77Z" fill="black"/>
<path d="M78.2074 336V325.091H81.233V336H78.2074ZM79.7273 323.685C79.2775 323.685 78.8916 323.536 78.5696 323.237C78.2524 322.934 78.0938 322.572 78.0938 322.151C78.0938 321.734 78.2524 321.376 78.5696 321.078C78.8916 320.775 79.2775 320.624 79.7273 320.624C80.1771 320.624 80.5606 320.775 80.8778 321.078C81.1998 321.376 81.3608 321.734 81.3608 322.151C81.3608 322.572 81.1998 322.934 80.8778 323.237C80.5606 323.536 80.1771 323.685 79.7273 323.685ZM86.6822 329.693V336H83.6566V325.091H86.5401V327.016H86.668C86.9094 326.381 87.3143 325.879 87.8825 325.51C88.4506 325.136 89.1396 324.949 89.9492 324.949C90.7068 324.949 91.3673 325.115 91.9308 325.446C92.4942 325.777 92.9322 326.251 93.2447 326.866C93.5572 327.477 93.7134 328.206 93.7134 329.054V336H90.6879V329.594C90.6926 328.926 90.5221 328.405 90.1765 328.031C89.8308 327.652 89.355 327.463 88.7489 327.463C88.3417 327.463 87.9819 327.551 87.6694 327.726C87.3616 327.901 87.1201 328.157 86.945 328.493C86.7745 328.824 86.6869 329.224 86.6822 329.693ZM99.1236 329.693V336H96.098V325.091H98.9815V327.016H99.1094C99.3509 326.381 99.7557 325.879 100.324 325.51C100.892 325.136 101.581 324.949 102.391 324.949C103.148 324.949 103.809 325.115 104.372 325.446C104.936 325.777 105.374 326.251 105.686 326.866C105.999 327.477 106.155 328.206 106.155 329.054V336H103.129V329.594C103.134 328.926 102.964 328.405 102.618 328.031C102.272 327.652 101.796 327.463 101.19 327.463C100.783 327.463 100.423 327.551 100.111 327.726C99.803 327.901 99.5616 328.157 99.3864 328.493C99.2159 328.824 99.1283 329.224 99.1236 329.693ZM113.511 336.213C112.389 336.213 111.423 335.986 110.613 335.531C109.808 335.072 109.188 334.423 108.752 333.585C108.317 332.742 108.099 331.746 108.099 330.595C108.099 329.473 108.317 328.488 108.752 327.641C109.188 326.793 109.801 326.133 110.592 325.659C111.387 325.186 112.32 324.949 113.39 324.949C114.11 324.949 114.78 325.065 115.4 325.297C116.025 325.524 116.57 325.867 117.034 326.327C117.502 326.786 117.867 327.364 118.127 328.06C118.388 328.751 118.518 329.561 118.518 330.489V331.32H109.306V329.445H115.67C115.67 329.009 115.575 328.623 115.386 328.287C115.197 327.951 114.934 327.688 114.598 327.499C114.266 327.304 113.88 327.207 113.44 327.207C112.981 327.207 112.574 327.314 112.218 327.527C111.868 327.735 111.593 328.017 111.395 328.372C111.196 328.723 111.094 329.113 111.089 329.544V331.327C111.089 331.866 111.189 332.333 111.387 332.726C111.591 333.119 111.877 333.422 112.247 333.635C112.616 333.848 113.054 333.955 113.561 333.955C113.897 333.955 114.205 333.907 114.484 333.812C114.763 333.718 115.002 333.576 115.201 333.386C115.4 333.197 115.552 332.965 115.656 332.69L118.454 332.875C118.312 333.547 118.021 334.134 117.581 334.636C117.145 335.134 116.582 335.522 115.89 335.801C115.204 336.076 114.411 336.213 113.511 336.213ZM120.493 336V325.091H123.426V326.994H123.539C123.738 326.317 124.072 325.806 124.541 325.46C125.01 325.11 125.549 324.935 126.16 324.935C126.312 324.935 126.475 324.944 126.65 324.963C126.825 324.982 126.979 325.008 127.112 325.041V327.726C126.97 327.683 126.773 327.645 126.522 327.612C126.271 327.579 126.042 327.562 125.833 327.562C125.388 327.562 124.991 327.66 124.64 327.854C124.295 328.043 124.02 328.308 123.816 328.649C123.618 328.99 123.518 329.383 123.518 329.828V336H120.493ZM133.987 329.082V326.561H143.795V329.082H133.987ZM133.987 333.798V331.277H143.795V333.798H133.987ZM152.117 331.433V328.933L162.117 324.53V327.406L155.271 330.155L155.363 330.006V330.361L155.271 330.212L162.117 332.96V335.837L152.117 331.433ZM170.988 325.091V327.364H164.255V325.091H170.988ZM165.796 336V324.303C165.796 323.512 165.95 322.856 166.258 322.335C166.57 321.814 166.996 321.424 167.536 321.163C168.076 320.903 168.689 320.773 169.376 320.773C169.84 320.773 170.263 320.808 170.647 320.879C171.035 320.95 171.324 321.014 171.513 321.071L170.974 323.344C170.855 323.306 170.709 323.27 170.533 323.237C170.363 323.204 170.188 323.188 170.008 323.188C169.563 323.188 169.253 323.292 169.077 323.5C168.902 323.704 168.815 323.99 168.815 324.359V336H165.796ZM179.832 331.355V325.091H182.858V336H179.953V334.018H179.839C179.593 334.658 179.183 335.171 178.61 335.56C178.042 335.948 177.349 336.142 176.529 336.142C175.8 336.142 175.159 335.976 174.605 335.645C174.051 335.313 173.618 334.842 173.305 334.232C172.997 333.621 172.841 332.889 172.836 332.037V325.091H175.862V331.497C175.867 332.141 176.039 332.65 176.38 333.024C176.721 333.398 177.178 333.585 177.751 333.585C178.116 333.585 178.457 333.502 178.774 333.337C179.091 333.166 179.347 332.915 179.541 332.584C179.74 332.252 179.837 331.843 179.832 331.355ZM188.303 329.693V336H185.278V325.091H188.161V327.016H188.289C188.531 326.381 188.935 325.879 189.504 325.51C190.072 325.136 190.761 324.949 191.57 324.949C192.328 324.949 192.988 325.115 193.552 325.446C194.115 325.777 194.553 326.251 194.866 326.866C195.178 327.477 195.335 328.206 195.335 329.054V336H192.309V329.594C192.314 328.926 192.143 328.405 191.798 328.031C191.452 327.652 190.976 327.463 190.37 327.463C189.963 327.463 189.603 327.551 189.29 327.726C188.983 327.901 188.741 328.157 188.566 328.493C188.396 328.824 188.308 329.224 188.303 329.693ZM202.648 336.213C201.531 336.213 200.569 335.976 199.765 335.503C198.964 335.025 198.349 334.362 197.918 333.514C197.492 332.667 197.279 331.691 197.279 330.588C197.279 329.471 197.494 328.491 197.925 327.648C198.361 326.8 198.979 326.14 199.779 325.666C200.579 325.188 201.531 324.949 202.634 324.949C203.586 324.949 204.419 325.122 205.134 325.467C205.849 325.813 206.415 326.298 206.831 326.923C207.248 327.548 207.478 328.282 207.52 329.125H204.665C204.585 328.58 204.372 328.143 204.026 327.811C203.685 327.475 203.238 327.307 202.684 327.307C202.215 327.307 201.805 327.435 201.455 327.69C201.109 327.941 200.839 328.308 200.645 328.791C200.451 329.274 200.354 329.859 200.354 330.545C200.354 331.241 200.449 331.833 200.638 332.321C200.832 332.809 201.105 333.18 201.455 333.436C201.805 333.692 202.215 333.82 202.684 333.82C203.029 333.82 203.339 333.749 203.614 333.607C203.893 333.464 204.123 333.259 204.303 332.989C204.488 332.714 204.608 332.385 204.665 332.001H207.52C207.473 332.835 207.246 333.569 206.838 334.203C206.436 334.833 205.88 335.325 205.169 335.68C204.459 336.036 203.619 336.213 202.648 336.213ZM215.26 325.091V327.364H208.69V325.091H215.26ZM210.182 322.477H213.207V332.648C213.207 332.927 213.25 333.145 213.335 333.301C213.42 333.453 213.539 333.559 213.69 333.621C213.847 333.682 214.027 333.713 214.23 333.713C214.372 333.713 214.514 333.701 214.656 333.678C214.798 333.649 214.907 333.628 214.983 333.614L215.459 335.865C215.307 335.912 215.094 335.967 214.82 336.028C214.545 336.095 214.211 336.135 213.818 336.149C213.089 336.178 212.45 336.08 211.901 335.858C211.356 335.635 210.932 335.29 210.629 334.821C210.326 334.352 210.177 333.76 210.182 333.045V322.477ZM217.231 336V325.091H220.256V336H217.231ZM218.751 323.685C218.301 323.685 217.915 323.536 217.593 323.237C217.276 322.934 217.117 322.572 217.117 322.151C217.117 321.734 217.276 321.376 217.593 321.078C217.915 320.775 218.301 320.624 218.751 320.624C219.201 320.624 219.584 320.775 219.901 321.078C220.223 321.376 220.384 321.734 220.384 322.151C220.384 322.572 220.223 322.934 219.901 323.237C219.584 323.536 219.201 323.685 218.751 323.685ZM227.609 336.213C226.506 336.213 225.552 335.979 224.747 335.51C223.947 335.036 223.329 334.378 222.893 333.536C222.458 332.688 222.24 331.705 222.24 330.588C222.24 329.461 222.458 328.476 222.893 327.634C223.329 326.786 223.947 326.128 224.747 325.659C225.552 325.186 226.506 324.949 227.609 324.949C228.712 324.949 229.664 325.186 230.464 325.659C231.269 326.128 231.889 326.786 232.325 327.634C232.761 328.476 232.978 329.461 232.978 330.588C232.978 331.705 232.761 332.688 232.325 333.536C231.889 334.378 231.269 335.036 230.464 335.51C229.664 335.979 228.712 336.213 227.609 336.213ZM227.623 333.869C228.125 333.869 228.544 333.727 228.88 333.443C229.217 333.154 229.47 332.761 229.64 332.264C229.815 331.767 229.903 331.201 229.903 330.567C229.903 329.932 229.815 329.366 229.64 328.869C229.47 328.372 229.217 327.979 228.88 327.69C228.544 327.402 228.125 327.257 227.623 327.257C227.117 327.257 226.69 327.402 226.345 327.69C226.004 327.979 225.746 328.372 225.571 328.869C225.4 329.366 225.315 329.932 225.315 330.567C225.315 331.201 225.4 331.767 225.571 332.264C225.746 332.761 226.004 333.154 226.345 333.443C226.69 333.727 227.117 333.869 227.623 333.869ZM237.971 329.693V336H234.946V325.091H237.829V327.016H237.957C238.199 326.381 238.603 325.879 239.172 325.51C239.74 325.136 240.429 324.949 241.238 324.949C241.996 324.949 242.656 325.115 243.22 325.446C243.783 325.777 244.221 326.251 244.534 326.866C244.846 327.477 245.002 328.206 245.002 329.054V336H241.977V329.594C241.982 328.926 241.811 328.405 241.466 328.031C241.12 327.652 240.644 327.463 240.038 327.463C239.631 327.463 239.271 327.551 238.958 327.726C238.651 327.901 238.409 328.157 238.234 328.493C238.064 328.824 237.976 329.224 237.971 329.693ZM256.945 336.213C255.842 336.213 254.888 335.979 254.083 335.51C253.283 335.036 252.665 334.378 252.229 333.536C251.793 332.688 251.576 331.705 251.576 330.588C251.576 329.461 251.793 328.476 252.229 327.634C252.665 326.786 253.283 326.128 254.083 325.659C254.888 325.186 255.842 324.949 256.945 324.949C258.048 324.949 259 325.186 259.8 325.659C260.605 326.128 261.225 326.786 261.661 327.634C262.096 328.476 262.314 329.461 262.314 330.588C262.314 331.705 262.096 332.688 261.661 333.536C261.225 334.378 260.605 335.036 259.8 335.51C259 335.979 258.048 336.213 256.945 336.213ZM256.959 333.869C257.461 333.869 257.88 333.727 258.216 333.443C258.552 333.154 258.806 332.761 258.976 332.264C259.151 331.767 259.239 331.201 259.239 330.567C259.239 329.932 259.151 329.366 258.976 328.869C258.806 328.372 258.552 327.979 258.216 327.69C257.88 327.402 257.461 327.257 256.959 327.257C256.453 327.257 256.026 327.402 255.681 327.69C255.34 327.979 255.082 328.372 254.907 328.869C254.736 329.366 254.651 329.932 254.651 330.567C254.651 331.201 254.736 331.767 254.907 332.264C255.082 332.761 255.34 333.154 255.681 333.443C256.026 333.727 256.453 333.869 256.959 333.869ZM264.338 336V321.455H267.364V326.923H267.456C267.589 326.63 267.781 326.331 268.032 326.028C268.287 325.721 268.619 325.465 269.026 325.261C269.438 325.053 269.949 324.949 270.56 324.949C271.355 324.949 272.089 325.157 272.762 325.574C273.434 325.986 273.971 326.608 274.374 327.442C274.776 328.27 274.978 329.31 274.978 330.56C274.978 331.777 274.781 332.804 274.388 333.642C274 334.475 273.47 335.107 272.797 335.538C272.13 335.964 271.382 336.178 270.553 336.178C269.966 336.178 269.466 336.08 269.054 335.886C268.647 335.692 268.313 335.448 268.053 335.155C267.792 334.857 267.594 334.556 267.456 334.253H267.321V336H264.338ZM267.3 330.545C267.3 331.194 267.39 331.76 267.57 332.243C267.75 332.726 268.01 333.102 268.351 333.372C268.692 333.637 269.106 333.77 269.594 333.77C270.087 333.77 270.503 333.635 270.844 333.365C271.185 333.09 271.443 332.712 271.618 332.229C271.798 331.741 271.888 331.18 271.888 330.545C271.888 329.916 271.801 329.362 271.625 328.884C271.45 328.405 271.192 328.031 270.851 327.761C270.51 327.491 270.091 327.357 269.594 327.357C269.102 327.357 268.685 327.487 268.344 327.747C268.008 328.008 267.75 328.377 267.57 328.855C267.39 329.333 267.3 329.897 267.3 330.545ZM276.996 325.091H280.022V336.54C280.022 337.383 279.856 338.064 279.525 338.585C279.193 339.106 278.718 339.487 278.097 339.729C277.482 339.97 276.746 340.091 275.888 340.091C275.784 340.091 275.685 340.089 275.59 340.084C275.491 340.084 275.387 340.081 275.278 340.077V337.712C275.358 337.716 275.429 337.719 275.491 337.719C275.548 337.723 275.609 337.726 275.675 337.726C276.163 337.726 276.504 337.622 276.698 337.413C276.897 337.21 276.996 336.902 276.996 336.49V325.091ZM278.502 323.685C278.057 323.685 277.674 323.536 277.352 323.237C277.03 322.934 276.869 322.572 276.869 322.151C276.869 321.734 277.03 321.376 277.352 321.078C277.674 320.775 278.057 320.624 278.502 320.624C278.957 320.624 279.343 320.775 279.66 321.078C279.982 321.376 280.143 321.734 280.143 322.151C280.143 322.572 279.982 322.934 279.66 323.237C279.343 323.536 278.957 323.685 278.502 323.685ZM293.035 331.433L283.035 335.837V332.96L289.882 330.212L289.789 330.361V330.006L289.882 330.155L283.035 327.406V324.53L293.035 328.933V331.433Z" fill="black"/>
<rect x="9" y="206.857" width="323" height="55.3714" fill="#7BCA83"/>
<rect x="9" y="206.857" width="323" height="55.3714" stroke="black"/>
<path d="M118.136 241.213C117.033 241.213 116.079 240.979 115.274 240.51C114.474 240.036 113.856 239.378 113.42 238.536C112.985 237.688 112.767 236.705 112.767 235.588C112.767 234.461 112.985 233.476 113.42 232.634C113.856 231.786 114.474 231.128 115.274 230.659C116.079 230.186 117.033 229.949 118.136 229.949C119.24 229.949 120.191 230.186 120.991 230.659C121.796 231.128 122.417 231.786 122.852 232.634C123.288 233.476 123.506 234.461 123.506 235.588C123.506 236.705 123.288 237.688 122.852 238.536C122.417 239.378 121.796 240.036 120.991 240.51C120.191 240.979 119.24 241.213 118.136 241.213ZM118.151 238.869C118.652 238.869 119.071 238.727 119.408 238.443C119.744 238.154 119.997 237.761 120.168 237.264C120.343 236.767 120.43 236.201 120.43 235.567C120.43 234.932 120.343 234.366 120.168 233.869C119.997 233.372 119.744 232.979 119.408 232.69C119.071 232.402 118.652 232.257 118.151 232.257C117.644 232.257 117.218 232.402 116.872 232.69C116.531 232.979 116.273 233.372 116.098 233.869C115.928 234.366 115.842 234.932 115.842 235.567C115.842 236.201 115.928 236.767 116.098 237.264C116.273 237.761 116.531 238.154 116.872 238.443C117.218 238.727 117.644 238.869 118.151 238.869ZM132.469 236.355V230.091H135.494V241H132.589V239.018H132.476C132.23 239.658 131.82 240.171 131.247 240.56C130.679 240.948 129.985 241.142 129.166 241.142C128.437 241.142 127.795 240.976 127.241 240.645C126.688 240.313 126.254 239.842 125.942 239.232C125.634 238.621 125.478 237.889 125.473 237.037V230.091H128.499V236.497C128.503 237.141 128.676 237.65 129.017 238.024C129.358 238.398 129.815 238.585 130.388 238.585C130.752 238.585 131.093 238.502 131.411 238.337C131.728 238.166 131.983 237.915 132.178 237.584C132.376 237.252 132.473 236.843 132.469 236.355ZM143.717 230.091V232.364H137.147V230.091H143.717ZM138.639 227.477H141.664V237.648C141.664 237.927 141.707 238.145 141.792 238.301C141.877 238.453 141.996 238.559 142.147 238.621C142.304 238.682 142.484 238.713 142.687 238.713C142.829 238.713 142.971 238.701 143.113 238.678C143.255 238.649 143.364 238.628 143.44 238.614L143.916 240.865C143.764 240.912 143.551 240.967 143.277 241.028C143.002 241.095 142.668 241.135 142.275 241.149C141.546 241.178 140.907 241.08 140.358 240.858C139.813 240.635 139.389 240.29 139.086 239.821C138.783 239.352 138.634 238.76 138.639 238.045V227.477ZM150.542 241.213C149.42 241.213 148.454 240.986 147.645 240.531C146.84 240.072 146.219 239.423 145.784 238.585C145.348 237.742 145.13 236.746 145.13 235.595C145.13 234.473 145.348 233.488 145.784 232.641C146.219 231.793 146.833 231.133 147.623 230.659C148.419 230.186 149.351 229.949 150.422 229.949C151.141 229.949 151.811 230.065 152.431 230.297C153.056 230.524 153.601 230.867 154.065 231.327C154.534 231.786 154.898 232.364 155.159 233.06C155.419 233.751 155.549 234.561 155.549 235.489V236.32H146.338V234.445H152.701C152.701 234.009 152.607 233.623 152.417 233.287C152.228 232.951 151.965 232.688 151.629 232.499C151.297 232.304 150.912 232.207 150.471 232.207C150.012 232.207 149.605 232.314 149.25 232.527C148.899 232.735 148.625 233.017 148.426 233.372C148.227 233.723 148.125 234.113 148.12 234.544V236.327C148.12 236.866 148.22 237.333 148.419 237.726C148.622 238.119 148.909 238.422 149.278 238.635C149.647 238.848 150.085 238.955 150.592 238.955C150.928 238.955 151.236 238.907 151.515 238.812C151.795 238.718 152.034 238.576 152.233 238.386C152.431 238.197 152.583 237.965 152.687 237.69L155.485 237.875C155.343 238.547 155.052 239.134 154.612 239.636C154.176 240.134 153.613 240.522 152.922 240.801C152.235 241.076 151.442 241.213 150.542 241.213ZM157.524 241V230.091H160.457V231.994H160.571C160.77 231.317 161.103 230.806 161.572 230.46C162.041 230.11 162.581 229.935 163.191 229.935C163.343 229.935 163.506 229.944 163.681 229.963C163.857 229.982 164.011 230.008 164.143 230.041V232.726C164.001 232.683 163.805 232.645 163.554 232.612C163.303 232.579 163.073 232.562 162.865 232.562C162.42 232.562 162.022 232.66 161.672 232.854C161.326 233.043 161.051 233.308 160.848 233.649C160.649 233.99 160.549 234.383 160.549 234.828V241H157.524ZM176.809 225.32V226.66C176.809 229.32 174.509 232.26 170.329 232.98L171.469 235.18C176.269 234.24 179.129 230.68 179.129 226.66V225.32H176.809ZM177.349 225.32V226.66C177.349 230.74 180.189 234.24 184.989 235.18L186.129 232.98C181.929 232.26 179.649 229.38 179.649 226.66V225.32H177.349ZM169.949 238.36V240.52H186.709V238.36H169.949ZM190.227 225.8V227.92H201.887V225.8H190.227ZM188.327 238.52V240.66H205.067V238.52H188.327ZM200.827 225.8V227.42C200.827 229.56 200.827 232.26 199.987 236.02L202.607 236.3C203.467 232.28 203.447 229.66 203.447 227.42V225.8H200.827ZM201.307 230.26L189.647 230.62L190.007 232.88L201.307 232.26V230.26ZM194.267 234.08V239.3H196.927V234.08H194.267ZM206.746 238.46V240.64H223.506V238.46H206.746ZM208.026 225.86V227.98H222.126V225.86H208.026ZM208.106 233.52V235.66H222.066V233.52H208.106ZM210.546 227.82V233.72H213.206V227.82H210.546ZM216.966 227.82V233.72H219.606V227.82H216.966Z" fill="black"/>
<rect x="6.5" y="406.5" width="328" height="132" stroke="black" stroke-width="5"/>
<path d="M80.0753 510.091C79.6918 510.091 79.3319 510.06 78.9957 509.999C78.6643 509.942 78.3897 509.868 78.1719 509.778L78.8537 507.52C79.2088 507.629 79.5284 507.688 79.8125 507.697C80.1013 507.707 80.3499 507.641 80.5582 507.499C80.7713 507.357 80.9441 507.115 81.0767 506.774L81.2543 506.312L77.3409 495.091H80.5227L82.7812 503.102H82.8949L85.1747 495.091H88.3778L84.1378 507.179C83.9342 507.766 83.6572 508.277 83.3068 508.713C82.9612 509.153 82.5232 509.492 81.9929 509.729C81.4626 509.97 80.8234 510.091 80.0753 510.091ZM95.2369 497.634V495.105H105.045V497.634H95.2369ZM95.2369 502.349V499.821H105.045V502.349H95.2369ZM119.077 491.455V506H116.002V494.374H115.917L112.586 496.462V493.734L116.187 491.455H119.077ZM128.863 491.455V506H125.787V494.374H125.702L122.371 496.462V493.734L125.972 491.455H128.863Z" fill="black"/>
<rect x="9" y="408.857" width="323" height="55.3714" fill="#7BCA83"/>
<rect x="9" y="408.857" width="323" height="55.3714" stroke="black"/>
<path d="M113.207 443V432.091H116.233V443H113.207ZM114.727 430.685C114.277 430.685 113.892 430.536 113.57 430.237C113.252 429.934 113.094 429.572 113.094 429.151C113.094 428.734 113.252 428.376 113.57 428.078C113.892 427.775 114.277 427.624 114.727 427.624C115.177 427.624 115.561 427.775 115.878 428.078C116.2 428.376 116.361 428.734 116.361 429.151C116.361 429.572 116.2 429.934 115.878 430.237C115.561 430.536 115.177 430.685 114.727 430.685ZM121.682 436.693V443H118.657V432.091H121.54V434.016H121.668C121.909 433.381 122.314 432.879 122.882 432.51C123.451 432.136 124.14 431.949 124.949 431.949C125.707 431.949 126.367 432.115 126.931 432.446C127.494 432.777 127.932 433.251 128.245 433.866C128.557 434.477 128.713 435.206 128.713 436.054V443H125.688V436.594C125.693 435.926 125.522 435.405 125.176 435.031C124.831 434.652 124.355 434.463 123.749 434.463C123.342 434.463 122.982 434.551 122.669 434.726C122.362 434.901 122.12 435.157 121.945 435.493C121.775 435.824 121.687 436.224 121.682 436.693ZM134.124 436.693V443H131.098V432.091H133.982V434.016H134.109C134.351 433.381 134.756 432.879 135.324 432.51C135.892 432.136 136.581 431.949 137.391 431.949C138.148 431.949 138.809 432.115 139.372 432.446C139.936 432.777 140.374 433.251 140.686 433.866C140.999 434.477 141.155 435.206 141.155 436.054V443H138.129V436.594C138.134 435.926 137.964 435.405 137.618 435.031C137.272 434.652 136.796 434.463 136.19 434.463C135.783 434.463 135.423 434.551 135.111 434.726C134.803 434.901 134.562 435.157 134.386 435.493C134.216 435.824 134.128 436.224 134.124 436.693ZM148.511 443.213C147.389 443.213 146.423 442.986 145.613 442.531C144.808 442.072 144.188 441.423 143.752 440.585C143.317 439.742 143.099 438.746 143.099 437.595C143.099 436.473 143.317 435.488 143.752 434.641C144.188 433.793 144.801 433.133 145.592 432.659C146.387 432.186 147.32 431.949 148.39 431.949C149.11 431.949 149.78 432.065 150.4 432.297C151.025 432.524 151.57 432.867 152.034 433.327C152.502 433.786 152.867 434.364 153.127 435.06C153.388 435.751 153.518 436.561 153.518 437.489V438.32H144.306V436.445H150.67C150.67 436.009 150.575 435.623 150.386 435.287C150.197 434.951 149.934 434.688 149.598 434.499C149.266 434.304 148.88 434.207 148.44 434.207C147.981 434.207 147.574 434.314 147.218 434.527C146.868 434.735 146.593 435.017 146.395 435.372C146.196 435.723 146.094 436.113 146.089 436.544V438.327C146.089 438.866 146.189 439.333 146.387 439.726C146.591 440.119 146.877 440.422 147.247 440.635C147.616 440.848 148.054 440.955 148.561 440.955C148.897 440.955 149.205 440.907 149.484 440.812C149.763 440.718 150.002 440.576 150.201 440.386C150.4 440.197 150.552 439.965 150.656 439.69L153.454 439.875C153.312 440.547 153.021 441.134 152.581 441.636C152.145 442.134 151.582 442.522 150.89 442.801C150.204 443.076 149.411 443.213 148.511 443.213ZM155.493 443V432.091H158.426V433.994H158.539C158.738 433.317 159.072 432.806 159.541 432.46C160.01 432.11 160.549 431.935 161.16 431.935C161.312 431.935 161.475 431.944 161.65 431.963C161.825 431.982 161.979 432.008 162.112 432.041V434.726C161.97 434.683 161.773 434.645 161.522 434.612C161.271 434.579 161.042 434.562 160.833 434.562C160.388 434.562 159.991 434.66 159.64 434.854C159.295 435.043 159.02 435.308 158.816 435.649C158.618 435.99 158.518 436.383 158.518 436.828V443H155.493ZM174.778 427.32V428.66C174.778 431.32 172.478 434.26 168.298 434.98L169.438 437.18C174.238 436.24 177.098 432.68 177.098 428.66V427.32H174.778ZM175.318 427.32V428.66C175.318 432.74 178.158 436.24 182.958 437.18L184.098 434.98C179.898 434.26 177.618 431.38 177.618 428.66V427.32H175.318ZM167.918 440.36V442.52H184.678V440.36H167.918ZM188.196 427.8V429.92H199.856V427.8H188.196ZM186.296 440.52V442.66H203.036V440.52H186.296ZM198.796 427.8V429.42C198.796 431.56 198.796 434.26 197.956 438.02L200.576 438.3C201.436 434.28 201.416 431.66 201.416 429.42V427.8H198.796ZM199.276 432.26L187.616 432.62L187.976 434.88L199.276 434.26V432.26ZM192.236 436.08V441.3H194.896V436.08H192.236ZM204.715 440.46V442.64H221.475V440.46H204.715ZM205.995 427.86V429.98H220.095V427.86H205.995ZM206.075 435.52V437.66H220.035V435.52H206.075ZM208.515 429.82V435.72H211.175V429.82H208.515ZM214.935 429.82V435.72H217.575V429.82H214.935Z" fill="black"/>
<path d="M166.061 366.939C165.475 366.354 164.525 366.354 163.939 366.939L154.393 376.485C153.808 377.071 153.808 378.021 154.393 378.607C154.979 379.192 155.929 379.192 156.515 378.607L165 370.121L173.485 378.607C174.071 379.192 175.021 379.192 175.607 378.607C176.192 378.021 176.192 377.071 175.607 376.485L166.061 366.939ZM166.5 404V368H163.5V404H166.5Z" fill="black"/>
<path d="M166.061 164.939C165.475 164.354 164.525 164.354 163.939 164.939L154.393 174.485C153.808 175.071 153.808 176.021 154.393 176.607C154.979 177.192 155.929 177.192 156.515 176.607L165 168.121L173.485 176.607C174.071 177.192 175.021 177.192 175.607 176.607C176.192 176.021 176.192 175.071 175.607 174.485L166.061 164.939ZM166.5 202V166H163.5V202H166.5Z" fill="black"/>
</g>
<defs>
<filter id="filter0_d_8_3" x="0" y="0" width="341" height="549" filterUnits="userSpaceOnUse" color-interpolation-filters="sRGB">
<feFlood flood-opacity="0" result="BackgroundImageFix"/>
<feColorMatrix in="SourceAlpha" type="matrix" values="0 0 0 0 0 0 0 0 0 0 0 0 0 0 0 0 0 0 127 0" result="hardAlpha"/>
<feOffset dy="4"/>
<feGaussianBlur stdDeviation="2"/>
<feComposite in2="hardAlpha" operator="out"/>
<feColorMatrix type="matrix" values="0 0 0 0 0 0 0 0 0 0 0 0 0 0 0 0 0 0 0.25 0"/>
<feBlend mode="normal" in2="BackgroundImageFix" result="effect1_dropShadow_8_3"/>
<feBlend mode="normal" in="SourceGraphic" in2="effect1_dropShadow_8_3" result="shape"/>
</filter>
</defs>
</svg>
